<svg width="47" height="33" viewBox="0 0 47 33" fill="none" xmlns="http://www.w3.org/2000/svg">
<path d="M46.0316 5.16544C45.49 3.20746 43.9025 1.664 41.8893 1.13678C38.2114 0.158203 23.4995 0.158203 23.4995 0.158203C23.4995 0.158203 8.78813 0.158203 5.11023 1.09967C3.13573 1.62634 1.50949 3.20774 0.967885 5.16544C0 8.74164 0 16.1582 0 16.1582C0 16.1582 0 23.6122 0.967885 27.151C1.51006 29.1087 3.097 30.6521 5.11051 31.1794C8.82686 32.1582 23.5 32.1582 23.5 32.1582C23.5 32.1582 38.2114 32.1582 41.8893 31.2167C43.9028 30.6898 45.49 29.1463 46.0322 27.1886C46.9998 23.6122 46.9998 16.1959 46.9998 16.1959C46.9998 16.1959 47.0385 8.74164 46.0316 5.16544ZM18.8155 23.0099V9.30652L31.0492 16.1582L18.8155 23.0099Z" fill="#00B7B5"/>
</svg>
