<svg width="41" height="42" viewBox="0 0 41 42" fill="none" xmlns="http://www.w3.org/2000/svg">
<path d="M34.5781 5.25915L37.517 2.32031L40.9985 5.80219L38.0597 8.74103L34.5781 5.25915Z" fill="#00B7B5"/>
<path d="M21.9766 21.343L25.882 20.9179L26.8795 19.9204L23.3986 16.4395L22.401 17.437L21.9766 21.343Z" fill="#00B7B5"/>
<path d="M25.0977 14.7414L32.88 6.95898L36.3616 10.4402L28.5789 18.2226L25.0977 14.7414Z" fill="#00B7B5"/>
<path d="M26.9845 23.2155L19.8168 23.9956H12.1345V21.5929H19.533L19.8984 18.2356H7.52243V15.8326H20.6085L29.1344 7.30664H4.78942C2.14837 7.30664 0 9.45501 0 12.0957V27.4734C0 30.1145 2.14837 32.2628 4.78942 32.2628H6.08507V39.1415L16.3593 32.2628H29.7359C32.3767 32.2628 34.525 30.1145 34.525 27.4734V15.6749L26.9845 23.2155ZM10.1922 23.9956H7.52243V21.5929H10.1922V23.9956Z" fill="#00B7B5"/>
</svg>
