<svg width="46" height="46" viewBox="0 0 46 46" fill="none" xmlns="http://www.w3.org/2000/svg">
<path d="M23.1691 4.44214C19.5712 4.44214 16.054 5.50906 13.0624 7.50798C10.0708 9.50691 7.73912 12.3481 6.36224 15.6721C4.98536 18.9962 4.62511 22.654 5.32703 26.1828C6.02896 29.7116 7.76155 32.9531 10.3057 35.4972C12.8498 38.0414 16.0913 39.7739 19.6201 40.4759C23.1489 41.1778 26.8067 40.8175 30.1308 39.4407C33.4548 38.0638 36.296 35.7321 38.2949 32.7405C40.2938 29.7489 41.3608 26.2317 41.3608 22.6338C41.3557 17.8106 39.4374 13.1865 36.0269 9.77597C32.6164 6.36548 27.9923 4.44723 23.1691 4.44214ZM23.1691 38.0267C20.1247 38.0267 17.1486 37.1239 14.6173 35.4325C12.0859 33.7411 10.113 31.3371 8.94792 28.5244C7.78286 25.7117 7.47803 22.6167 8.07197 19.6308C8.66591 16.6448 10.1319 13.9021 12.2847 11.7493C14.4374 9.5966 17.1802 8.13056 20.1661 7.53662C23.152 6.94268 26.2471 7.24751 29.0597 8.41257C31.8724 9.57762 34.2765 11.5506 35.9679 14.0819C37.6593 16.6133 38.562 19.5893 38.562 22.6338C38.5574 26.7148 36.9342 30.6274 34.0485 33.5131C31.1627 36.3988 27.2502 38.0221 23.1691 38.0267ZM31.156 21.6437C31.2861 21.7737 31.3893 21.928 31.4597 22.0979C31.5301 22.2678 31.5664 22.4499 31.5664 22.6338C31.5664 22.8177 31.5301 22.9998 31.4597 23.1696C31.3893 23.3395 31.2861 23.4939 31.156 23.6238L25.5585 29.2212C25.2959 29.4838 24.9398 29.6313 24.5685 29.6313C24.1971 29.6313 23.841 29.4838 23.5784 29.2212C23.3159 28.9587 23.1683 28.6025 23.1683 28.2312C23.1683 27.8599 23.3159 27.5037 23.5784 27.2412L26.7882 24.0331H16.1723C15.8012 24.0331 15.4453 23.8857 15.1828 23.6233C14.9204 23.3608 14.773 23.0049 14.773 22.6338C14.773 22.2626 14.9204 21.9067 15.1828 21.6443C15.4453 21.3819 15.8012 21.2344 16.1723 21.2344H26.7882L23.5784 18.0264C23.3159 17.7638 23.1683 17.4077 23.1683 17.0363C23.1683 16.665 23.3159 16.3089 23.5784 16.0463C23.841 15.7837 24.1971 15.6362 24.5685 15.6362C24.9398 15.6362 25.2959 15.7837 25.5585 16.0463L31.156 21.6437Z" fill="#00363A"/>
</svg>
