<svg width="26" height="27" viewBox="0 0 26 27" fill="none" xmlns="http://www.w3.org/2000/svg">
<path d="M8.16667 3.44727C5.19118 3.44727 2.75 5.88845 2.75 8.86393V17.5306C2.75 20.5061 5.19118 22.9473 8.16667 22.9473H16.8333C19.8088 22.9473 22.25 20.5061 22.25 17.5306V8.86393C22.25 5.88845 19.8088 3.44727 16.8333 3.44727H8.16667ZM8.16667 6.1556H16.8333C18.345 6.1556 19.5417 7.35225 19.5417 8.86393V17.5306C19.5417 19.0423 18.345 20.2389 16.8333 20.2389H8.16667C6.65498 20.2389 5.45833 19.0423 5.45833 17.5306V8.86393C5.45833 7.35225 6.65498 6.1556 8.16667 6.1556ZM17.6458 6.69727C17.2867 6.69727 16.9422 6.83994 16.6883 7.09389C16.4343 7.34785 16.2917 7.69229 16.2917 8.05143C16.2917 8.41058 16.4343 8.75502 16.6883 9.00897C16.9422 9.26293 17.2867 9.4056 17.6458 9.4056C18.005 9.4056 18.3494 9.26293 18.6034 9.00897C18.8573 8.75502 19 8.41058 19 8.05143C19 7.69229 18.8573 7.34785 18.6034 7.09389C18.3494 6.83994 18.005 6.69727 17.6458 6.69727ZM12.5 7.7806C10.8073 7.7806 9.367 8.46412 8.44173 9.50505C7.51647 10.546 7.08333 11.8807 7.08333 13.1973C7.08333 14.5138 7.51647 15.8486 8.44173 16.8895C9.367 17.9304 10.8073 18.6139 12.5 18.6139C14.1927 18.6139 15.633 17.9304 16.5583 16.8895C17.4835 15.8486 17.9167 14.5138 17.9167 13.1973C17.9167 11.8807 17.4835 10.546 16.5583 9.50505C15.633 8.46412 14.1927 7.7806 12.5 7.7806ZM12.5 10.4889C13.5156 10.4889 14.1066 10.821 14.5355 11.3035C14.9644 11.7861 15.2083 12.4826 15.2083 13.1973C15.2083 13.912 14.9644 14.6085 14.5355 15.091C14.1066 15.5735 13.5156 15.9056 12.5 15.9056C11.4844 15.9056 10.8934 15.5735 10.4645 15.091C10.0356 14.6085 9.79167 13.912 9.79167 13.1973C9.79167 12.4826 10.0356 11.7861 10.4645 11.3035C10.8934 10.821 11.4844 10.4889 12.5 10.4889Z" fill="#00B7B5"/>
</svg>
