<svg width="22" height="22" viewBox="0 0 22 22" fill="none" xmlns="http://www.w3.org/2000/svg">
<path d="M21.3447 21.5585V21.5578H21.3499V13.9294C21.3499 10.1976 20.5465 7.32275 16.1837 7.32275C14.0863 7.32275 12.6789 8.47377 12.1043 9.56473H12.0437V7.67115H7.9071V21.5578H12.2145V14.6815C12.2145 12.8712 12.5577 11.1203 14.7997 11.1203C17.0089 11.1203 17.0417 13.1865 17.0417 14.7975V21.5585H21.3447Z" fill="#00B7B5"/>
<path d="M0.893066 7.67188H5.20569V21.5585H0.893066V7.67188Z" fill="#00B7B5"/>
<path d="M3.04775 0.758301C1.66871 0.758301 0.549927 1.87708 0.549927 3.25612C0.549927 4.63516 1.66871 5.77734 3.04775 5.77734C4.42679 5.77734 5.54557 4.63516 5.54557 3.25612C5.54453 1.87708 4.42575 0.758301 3.04775 0.758301Z" fill="#00B7B5"/>
</svg>
