<svg width="241" height="37" viewBox="0 0 241 37" fill="none" xmlns="http://www.w3.org/2000/svg">
<g clip-path="url(#clip0_242_7892)">
<path d="M108.602 7.08008C107.564 7.11471 106.754 7.81947 106.754 8.89479C106.754 9.97012 107.56 10.7095 108.602 10.7095C109.675 10.7095 110.481 9.97012 110.481 8.89479C110.481 7.81947 109.675 7.08008 108.602 7.08008Z" fill="#371E55"/>
<path d="M121.397 13.6299C118.578 13.6299 116.564 15.074 115.687 16.8212L115.623 14.4368C115.623 14.3677 115.609 14.2993 115.582 14.2357C115.555 14.1722 115.515 14.1151 115.465 14.0678C115.414 14.0205 115.355 13.9841 115.29 13.9609C115.224 13.9377 115.155 13.9281 115.086 13.9329H114.15C114.083 13.9284 114.015 13.9382 113.952 13.9619C113.889 13.9856 113.831 14.0225 113.783 14.0702C113.735 14.1178 113.698 14.1752 113.674 14.2384C113.65 14.3016 113.639 14.3693 113.643 14.4368V28.8818C113.639 28.949 113.65 29.0164 113.674 29.0793C113.697 29.1423 113.734 29.1995 113.782 29.2471C113.83 29.2947 113.887 29.3317 113.95 29.3556C114.013 29.3795 114.08 29.3898 114.147 29.3857H115.555C115.623 29.3898 115.69 29.3795 115.753 29.3556C115.816 29.3317 115.873 29.2947 115.92 29.2471C115.968 29.1995 116.005 29.1423 116.029 29.0793C116.053 29.0164 116.063 28.949 116.059 28.8818V20.2238C116.294 18.1078 117.907 15.8221 120.994 15.8221C123.847 15.7892 125.76 17.8723 125.76 21.1312V28.8905C125.756 28.9577 125.767 29.025 125.79 29.088C125.814 29.151 125.851 29.2081 125.899 29.2558C125.946 29.3034 126.004 29.3404 126.066 29.3643C126.129 29.3882 126.197 29.3984 126.264 29.3944H127.648C127.715 29.3984 127.782 29.3882 127.845 29.3643C127.908 29.3404 127.965 29.3034 128.013 29.2558C128.061 29.2081 128.098 29.151 128.121 29.088C128.145 29.025 128.156 28.9577 128.152 28.8905V20.8178C128.145 16.4853 125.425 13.6299 121.397 13.6299Z" fill="#371E55"/>
<path d="M149.843 13.6299C145.209 13.6299 142.057 17.1225 142.057 21.6576C142.057 26.2948 145.481 29.687 150.248 29.687C152.933 29.687 154.646 28.8472 155.854 27.9745C155.908 27.9358 155.954 27.8864 155.989 27.8294C156.023 27.7724 156.046 27.7089 156.055 27.6428C156.065 27.5767 156.061 27.5094 156.043 27.4449C156.026 27.3805 155.995 27.3203 155.954 27.268L155.383 26.3606C155.21 26.0593 154.982 26.0593 154.712 26.2602C153.492 27.1733 152.006 27.6601 150.483 27.6455C147.159 27.6455 144.709 25.4948 144.373 22.4039H156.485C156.555 22.4115 156.625 22.4039 156.691 22.3817C156.757 22.3595 156.818 22.3233 156.869 22.2754C156.92 22.2275 156.96 22.1692 156.986 22.1044C157.013 22.0396 157.025 21.9699 157.022 21.9V21.3632C157.025 16.7537 154.071 13.6299 149.843 13.6299ZM154.743 20.4489H144.431C144.899 17.5935 147.016 15.6784 149.902 15.6784C152.487 15.6784 154.501 17.526 154.736 20.3814L154.743 20.4489Z" fill="#371E55"/>
<path d="M173.996 13.9324H172.922C172.854 13.9283 172.787 13.9386 172.724 13.9626C172.661 13.9866 172.604 14.0238 172.556 14.0716C172.508 14.1194 172.471 14.1768 172.448 14.24C172.424 14.3031 172.414 14.3706 172.418 14.438L172.351 16.722C171.276 15.0423 169.236 13.6328 166.207 13.6328C162.011 13.6311 158.789 17.0562 158.789 21.6588C158.789 26.2614 162.077 29.6882 166.274 29.6882C168.959 29.6882 170.908 28.4761 172.115 26.8328V28.8103C172.115 31.8337 169.966 34.1506 166.241 34.1506C164.424 34.1706 162.636 33.6915 161.071 32.7653C160.77 32.5921 160.535 32.6302 160.367 32.9384L159.796 33.8787C159.623 34.1817 159.696 34.4172 159.969 34.5852C161.353 35.425 163.293 36.2302 166.38 36.2302C171.65 36.2302 174.512 32.9055 174.512 28.5367V14.438C174.512 14.3707 174.499 14.3039 174.473 14.2418C174.447 14.1797 174.409 14.1234 174.361 14.0762C174.313 14.0291 174.256 13.9921 174.193 13.9674C174.13 13.9427 174.063 13.9308 173.996 13.9324ZM166.677 27.5047C163.656 27.5047 161.172 25.0181 161.172 21.6588C161.172 18.2995 163.656 15.8129 166.677 15.8129C170.001 15.8129 172.25 18.2995 172.25 21.6588C172.25 25.0527 170.001 27.5047 166.677 27.5047Z" fill="#371E55"/>
<path d="M222.209 8.89734H220.899C220.832 8.8933 220.765 8.90357 220.702 8.92746C220.639 8.95136 220.582 8.98834 220.534 9.03596C220.486 9.08358 220.449 9.14076 220.426 9.20373C220.402 9.26669 220.391 9.33401 220.395 9.40124V16.7207C219.326 14.9891 217.281 13.6315 214.386 13.6315C210.19 13.6315 206.969 17.0566 206.969 21.6592C206.969 26.2618 210.256 29.6887 214.454 29.6887C217.34 29.6887 219.388 28.345 220.563 26.5718L220.631 28.8887C220.627 28.9559 220.637 29.0232 220.661 29.0862C220.685 29.1492 220.722 29.2063 220.769 29.254C220.817 29.3016 220.874 29.3386 220.937 29.3625C221 29.3863 221.067 29.3966 221.134 29.3926H222.209C222.276 29.3966 222.343 29.3863 222.406 29.3625C222.469 29.3386 222.526 29.3016 222.574 29.254C222.621 29.2063 222.658 29.1492 222.682 29.0862C222.706 29.0232 222.716 28.9559 222.712 28.8887V9.39777C222.716 9.33083 222.705 9.26389 222.681 9.20135C222.657 9.1388 222.62 9.08205 222.572 9.03481C222.525 8.98757 222.468 8.95091 222.405 8.92722C222.343 8.90353 222.276 8.89335 222.209 8.89734ZM214.853 27.5051C211.832 27.5051 209.348 25.0185 209.348 21.6592C209.348 18.2999 211.832 15.8134 214.853 15.8134C218.177 15.8134 220.425 18.2999 220.425 21.6592C220.428 25.0532 218.181 27.5051 214.853 27.5051Z" fill="#371E55"/>
<path d="M240.461 13.9312H239.386C239.319 13.9271 239.252 13.9374 239.189 13.9613C239.126 13.9852 239.069 14.0222 239.021 14.0698C238.974 14.1174 238.937 14.1746 238.913 14.2376C238.889 14.3005 238.879 14.3679 238.883 14.4351L238.808 16.7191C237.77 15.0221 235.661 13.6299 232.64 13.6299C228.442 13.6299 225.221 17.055 225.221 21.6576C225.221 26.2602 228.508 29.687 232.706 29.687C235.593 29.687 237.64 28.3762 238.815 26.5961L238.883 28.8801C238.879 28.9473 238.889 29.0146 238.913 29.0776C238.937 29.1406 238.974 29.1978 239.021 29.2454C239.069 29.293 239.126 29.33 239.189 29.3539C239.252 29.3778 239.319 29.388 239.386 29.384H240.461C240.528 29.388 240.595 29.3778 240.658 29.3539C240.721 29.33 240.778 29.293 240.826 29.2454C240.873 29.1978 240.91 29.1406 240.934 29.0776C240.958 29.0146 240.968 28.9473 240.964 28.8801V14.4368C240.968 14.3694 240.958 14.3019 240.935 14.2388C240.911 14.1756 240.874 14.1182 240.826 14.0704C240.779 14.0226 240.721 13.9854 240.658 13.9614C240.595 13.9374 240.528 13.9271 240.461 13.9312ZM233.109 27.5035C230.088 27.5035 227.605 25.0169 227.605 21.6576C227.605 18.2983 230.088 15.8117 233.109 15.8117C236.433 15.8117 238.682 18.2983 238.682 21.6576C238.675 25.0515 236.426 27.5035 233.102 27.5035H233.109Z" fill="#371E55"/>
<path d="M109.338 13.9336H107.961C107.682 13.9336 107.457 14.1592 107.457 14.4375V28.8825C107.457 29.1608 107.682 29.3864 107.961 29.3864H109.338C109.616 29.3864 109.841 29.1608 109.841 28.8825V14.4375C109.841 14.1592 109.616 13.9336 109.338 13.9336Z" fill="#371E55"/>
<path d="M203.576 13.9312H202.501C202.434 13.9271 202.367 13.9374 202.304 13.9613C202.241 13.9852 202.184 14.0222 202.136 14.0698C202.089 14.1174 202.052 14.1746 202.028 14.2376C202.004 14.3005 201.994 14.3679 201.998 14.4351L201.93 16.6862C200.858 15.0065 198.776 13.6299 195.755 13.6299C191.559 13.6299 188.336 17.055 188.336 21.6576C188.336 26.2602 191.623 29.687 195.821 29.687C198.709 29.687 200.756 28.3762 201.93 26.5961L201.998 28.8801C201.994 28.9473 202.004 29.0146 202.028 29.0776C202.052 29.1406 202.089 29.1978 202.136 29.2454C202.184 29.293 202.241 29.33 202.304 29.3539C202.367 29.3778 202.434 29.388 202.501 29.384H203.576C203.643 29.388 203.71 29.3778 203.773 29.3539C203.836 29.33 203.893 29.293 203.941 29.2454C203.989 29.1978 204.025 29.1406 204.049 29.0776C204.073 29.0146 204.083 28.9473 204.079 28.8801V14.4368C204.084 14.3694 204.074 14.3019 204.05 14.2388C204.026 14.1756 203.989 14.1182 203.942 14.0704C203.894 14.0226 203.837 13.9854 203.774 13.9614C203.711 13.9374 203.643 13.9271 203.576 13.9312ZM196.224 27.5035C193.203 27.5035 190.72 25.0169 190.72 21.6576C190.72 18.2983 193.203 15.8117 196.224 15.8117C199.548 15.8117 201.797 18.2983 201.797 21.6576C201.797 25.0515 199.548 27.5035 196.224 27.5035Z" fill="#371E55"/>
<path d="M187.826 14.4374C186.937 13.9075 185.764 13.6824 184.483 13.8105C182.734 13.9837 181.249 14.8495 180.514 16.7162L180.417 14.4374C180.417 14.3684 180.403 14.3 180.376 14.2366C180.349 14.1733 180.308 14.1162 180.258 14.0689C180.208 14.0217 180.148 13.9853 180.084 13.962C180.019 13.9387 179.95 13.929 179.881 13.9335H178.806C178.673 13.9335 178.545 13.9866 178.45 14.0811C178.356 14.1756 178.303 14.3037 178.303 14.4374V28.8824C178.303 29.016 178.356 29.1442 178.45 29.2387C178.545 29.3332 178.673 29.3863 178.806 29.3863H180.182C180.315 29.3863 180.443 29.3332 180.538 29.2387C180.632 29.1442 180.685 29.016 180.685 28.8824V20.3976C180.869 18.0201 181.993 16.0686 184.464 15.6859C185.27 15.5877 186.088 15.7235 186.819 16.0772C186.928 16.1347 187.055 16.1503 187.174 16.1209C187.294 16.0916 187.399 16.0194 187.47 15.9179L187.989 15.1612C188.028 15.1038 188.055 15.0389 188.068 14.9705C188.082 14.9021 188.081 14.8317 188.065 14.7637C188.05 14.6958 188.021 14.6317 187.98 14.5756C187.939 14.5194 187.886 14.4724 187.826 14.4374Z" fill="#371E55"/>
<path d="M141.082 26.9051C140.887 26.5952 140.689 26.4878 140.428 26.6991C139.829 27.1822 138.796 27.7606 137.518 27.5216C135.848 27.2099 134.685 25.6688 134.685 23.9683V15.88H139.805C139.901 15.8805 139.994 15.8537 140.075 15.8028C140.155 15.7519 140.22 15.6789 140.26 15.5926L140.707 14.6523C140.743 14.5755 140.76 14.4907 140.755 14.4057C140.749 14.3208 140.723 14.2385 140.678 14.1666C140.632 14.0947 140.569 14.0355 140.495 13.9944C140.42 13.9534 140.337 13.9319 140.252 13.932H134.685V9.39692C134.684 9.26388 134.631 9.1366 134.537 9.04285C134.442 8.94909 134.315 8.89648 134.182 8.89648H132.874C132.74 8.89648 132.612 8.94957 132.518 9.04407C132.423 9.13857 132.37 9.26674 132.37 9.40038V13.932H129.683C129.617 13.932 129.552 13.945 129.491 13.9704C129.43 13.9957 129.374 14.0329 129.328 14.0797C129.281 14.1265 129.244 14.1821 129.219 14.2432C129.194 14.3043 129.181 14.3698 129.182 14.4359V15.3761C129.182 15.5098 129.235 15.6379 129.329 15.7324C129.423 15.8269 129.551 15.88 129.685 15.88H132.336V24.3458C132.336 27.7727 134.618 29.6878 137.741 29.6878C139.906 29.6878 141.182 28.7424 141.511 28.4445C141.61 28.3701 141.678 28.2617 141.702 28.1402C141.725 28.0186 141.703 27.8926 141.639 27.7865C141.511 27.5839 141.421 27.4367 141.082 26.9051Z" fill="#371E55"/>
<path d="M102.852 13.9312H100.177C100.005 13.9312 99.8378 13.9881 99.7016 14.093C99.5655 14.198 99.4679 14.345 99.4239 14.5113L99.1592 15.5069C98.0259 14.2152 96.6106 13.6299 94.6364 13.6299C90.3488 13.6299 87.115 17.0758 87.115 21.6472C87.115 26.2186 90.3056 29.6645 94.5377 29.6645C95.4392 29.6794 96.3337 29.5048 97.1635 29.1519C97.9933 28.7991 98.7398 28.2758 99.3547 27.616L99.4222 28.6065C99.4232 28.7134 99.4463 28.8189 99.4901 28.9164C99.5338 29.0139 99.5973 29.1012 99.6765 29.173C99.7556 29.2447 99.8488 29.2993 99.95 29.3332C100.051 29.3671 100.158 29.3797 100.265 29.3702H102.852C103.343 29.3702 103.661 29.0637 103.661 28.5909V14.7104C103.661 14.2377 103.343 13.9312 102.852 13.9312ZM98.2924 24.5251C97.583 25.2455 96.6019 25.6264 95.4565 25.6264C93.2297 25.6264 91.5496 23.9156 91.5496 21.6437C91.5496 19.3719 93.2297 17.6611 95.4565 17.6611C97.7923 17.6611 99.3617 19.2611 99.3617 21.6437C99.3847 22.1711 99.3019 22.6978 99.1183 23.1927C98.9346 23.6876 98.6538 24.1406 98.2924 24.5251Z" fill="#371E55"/>
<path d="M68.402 13.6328C63.7701 13.6328 60.0449 17.096 60.0449 21.6605C60.0449 26.225 63.7701 29.6865 68.402 29.6865C73.0338 29.6865 76.7573 26.2233 76.7573 21.6605C76.7573 17.0977 73.0321 13.6328 68.402 13.6328ZM68.402 25.69C66.1855 25.69 64.4743 23.9099 64.4743 21.6605C64.4743 19.4423 66.1855 17.6294 68.402 17.6294C70.6513 17.6294 72.3279 19.4423 72.3279 21.6605C72.3279 23.9099 70.6496 25.6917 68.402 25.6917V25.69Z" fill="#371E55"/>
<path d="M83.7117 13.9336H78.9829C78.7766 13.9341 78.5788 14.0163 78.4329 14.1623C78.2869 14.3084 78.2048 14.5063 78.2043 14.7128V16.4877C78.2048 16.6942 78.2869 16.8922 78.4329 17.0382C78.5788 17.1842 78.7766 17.2665 78.9829 17.2669H80.0211V29.4938C80.0197 30.0928 79.7814 30.667 79.3583 31.0907C78.9352 31.5145 78.3617 31.7534 77.7631 31.7552C77.6332 31.7552 77.5087 31.8069 77.4169 31.8988C77.325 31.9907 77.2734 32.1153 77.2734 32.2453V35.7379C77.2734 35.8676 77.3248 35.992 77.4162 36.0838C77.5077 36.1757 77.6318 36.2275 77.7614 36.228C79.5457 36.2275 81.2568 35.5178 82.5183 34.255C83.7798 32.9921 84.4885 31.2795 84.4885 29.4938V14.7128C84.4885 14.5065 84.4068 14.3085 84.2611 14.1624C84.1155 14.0164 83.9179 13.9341 83.7117 13.9336Z" fill="#371E55"/>
<path d="M82.2138 6.27734C80.7016 6.30851 79.5371 7.34747 79.5371 8.89206C79.5371 10.4366 80.7016 11.5068 82.2138 11.5068C83.7554 11.5068 84.9528 10.4349 84.9528 8.89206C84.9528 7.3492 83.7554 6.27734 82.2138 6.27734Z" fill="#371E55"/>
<path d="M58.5307 25.5406C58.4768 25.4119 58.381 25.3052 58.2588 25.2379C58.1365 25.1706 57.9952 25.1467 57.8577 25.1701C57.6578 25.2102 57.4541 25.2277 57.2504 25.222C55.9734 25.1181 55.2277 24.2073 55.2277 22.9554V9.67224C55.2268 9.46737 55.1453 9.2711 55.0009 9.12592C54.8565 8.98073 54.6607 8.8983 54.456 8.89648H51.5423C51.3358 8.89648 51.1377 8.97858 50.9917 9.12471C50.8457 9.27085 50.7637 9.46904 50.7637 9.67571V22.9588C50.7637 26.8948 53.5684 29.693 57.4926 29.693C58.0794 29.6891 58.6624 29.5987 59.2228 29.4246C59.327 29.3925 59.4234 29.3389 59.5056 29.2673C59.5878 29.1956 59.6542 29.1075 59.7003 29.0087C59.7464 28.9098 59.7714 28.8024 59.7735 28.6933C59.7756 28.5842 59.7548 28.4758 59.7125 28.3753L58.5307 25.5406Z" fill="#371E55"/>
<path d="M32.4247 15.2808C33.3176 15.2808 34.1904 15.0168 34.9328 14.5221C35.6752 14.0275 36.2539 13.3244 36.5956 12.5018C36.9372 11.6792 37.0267 10.7741 36.8525 9.90084C36.6783 9.02758 36.2483 8.22545 35.6169 7.59587C34.9856 6.96629 34.1812 6.53755 33.3054 6.36385C32.4297 6.19014 31.522 6.27929 30.697 6.62002C29.8721 6.96075 29.1671 7.53774 28.671 8.27805C28.1749 9.01836 27.9102 9.88872 27.9102 10.7791C27.9102 11.973 28.3858 13.118 29.2324 13.9623C30.0791 14.8065 31.2274 15.2808 32.4247 15.2808Z" fill="#371E56"/>
<path d="M27.7266 28.5583C25.4051 28.5578 23.1531 27.7679 21.3424 26.3192C19.5316 24.8705 18.2703 22.8494 17.7666 20.5896C17.6056 20.0762 17.5237 19.5414 17.5236 19.0035V12.9196C17.5236 11.7845 17.0714 10.6958 16.2665 9.89321C15.4616 9.09057 14.3699 8.63965 13.2315 8.63965C12.0932 8.63965 11.0015 9.09057 10.1966 9.89321C9.39165 10.6958 8.93945 11.7845 8.93945 12.9196V18.792C8.93945 26.5838 15.303 32.9883 23.1144 32.8331C25.6187 32.7831 28.0629 32.0586 30.188 30.7364C32.3131 29.4141 34.04 27.5433 35.1857 25.3221C34.2325 26.3442 33.0781 27.1591 31.7946 27.716C30.5112 28.2728 29.1263 28.5596 27.7266 28.5583Z" fill="#2BC4C3"/>
<path d="M36.7232 18.8308C36.7232 18.504 36.593 18.1906 36.3613 17.9595C36.1295 17.7285 35.8152 17.5986 35.4875 17.5986H29.358C29.0303 17.5986 28.716 17.7285 28.4842 17.9595C28.2525 18.1906 28.1223 18.504 28.1223 18.8308V19.0026C28.1213 20.2646 27.6676 21.4845 26.8431 22.4419C26.0185 23.3992 24.8777 24.0308 23.6269 24.2224C22.376 24.414 21.0977 24.153 20.023 23.4865C18.9484 22.82 18.1483 21.7921 17.7676 20.5887C18.1698 22.3981 19.0602 24.0635 20.3426 25.405C21.625 26.7465 23.2507 27.7131 25.0439 28.2003C26.8371 28.6874 28.7298 28.6768 30.5174 28.1694C32.305 27.6619 33.9195 26.6771 35.1866 25.3212C36.199 23.3612 36.7259 21.188 36.7232 18.9834V18.8308Z" fill="url(#paint0_linear_242_7892)"/>
</g>
<defs>
<linearGradient id="paint0_linear_242_7892" x1="20.824" y1="35.5517" x2="28.244" y2="18.9574" gradientUnits="userSpaceOnUse">
<stop offset="0.29" stop-color="#0C9898"/>
<stop offset="1" stop-color="#2BC4C3"/>
</linearGradient>
<clipPath id="clip0_242_7892">
<rect width="241" height="36" fill="white" transform="translate(-0.0390625 0.236328)"/>
</clipPath>
</defs>
</svg>
