<svg width="20" height="22" viewBox="0 0 20 22" fill="none" xmlns="http://www.w3.org/2000/svg">
<path d="M19.2006 5.80811C18.0021 5.80811 16.8964 5.41107 16.0084 4.74129C14.99 3.97348 14.2582 2.84719 13.9998 1.54904C13.9359 1.2283 13.9014 0.897305 13.8981 0.558105H10.4745V9.91295L10.4704 15.037C10.4704 16.407 9.57836 17.5685 8.34174 17.977C7.98285 18.0956 7.59525 18.1518 7.19166 18.1296C6.6765 18.1013 6.19375 17.9459 5.77416 17.6948C4.88125 17.1608 4.27586 16.192 4.25945 15.0838C4.23361 13.3517 5.63388 11.9395 7.36474 11.9395C7.7064 11.9395 8.03453 11.9953 8.34174 12.0966V9.53971V8.62055C8.01771 8.57256 7.68795 8.54754 7.35449 8.54754C5.45998 8.54754 3.6881 9.33504 2.42154 10.7538C1.46423 11.8259 0.890016 13.1938 0.801422 14.6281C0.685348 16.5124 1.37482 18.3035 2.71193 19.625C2.90839 19.819 3.1147 19.9991 3.33045 20.1652C4.47683 21.0475 5.87834 21.5257 7.35449 21.5257C7.68795 21.5257 8.01771 21.5011 8.34174 21.4531C9.72068 21.2488 10.993 20.6176 11.997 19.625C13.2308 18.4056 13.9125 16.7868 13.9199 15.0637L13.9022 7.41182C14.4908 7.86586 15.1343 8.24156 15.825 8.53318C16.8992 8.98641 18.0382 9.21609 19.2105 9.21568V6.72973V5.80728C19.2113 5.80811 19.2014 5.80811 19.2006 5.80811Z" fill="#00B7B5"/>
</svg>
